<svg xmlns="http://www.w3.org/2000/svg" viewBox="0 0 30 30"><defs><style>.cls-1{fill:#1a2356;stroke:#1a2356;stroke-width:0.97px;}.cls-1,.cls-2{stroke-miterlimit:10;}.cls-2{fill:none;stroke:#fff;stroke-width:0.75px;}.cls-3{fill:#fff;}.cls-4{fill:#fffefd;}.cls-5{fill:#e6be8a;}</style></defs><title>Artboard 3</title><g id="Favorito"><g id="Bg"><rect class="cls-1" x="0.5" y="0.5" width="30" height="30"/><rect class="cls-2" x="0.5" y="0.5" width="29" height="29" rx="6.8"/></g><g id="Base"><polygon class="cls-3" points="3.86 16.75 14.93 27.06 26 16.75 24.12 16.75 14.93 25.3 5.84 16.75 3.86 16.75"/><path class="cls-3" d="M26.58,11.5a9.62,9.62,0,0,0-2.12-3,6.69,6.69,0,0,0-3-1.67,5.56,5.56,0,0,0-3.28.26,6.4,6.4,0,0,0-2.64,2l-.66.84L14.21,9a6.61,6.61,0,0,0-2.69-2.21A5.49,5.49,0,0,0,8.1,6.51,6.64,6.64,0,0,0,5,8.28,9.73,9.73,0,0,0,2.82,11.5,8.05,8.05,0,0,1,4.33,7.74,7,7,0,0,1,7.75,5.25a6.56,6.56,0,0,1,4.37.12,8,8,0,0,1,3.42,2.71l-1.31,0a7.62,7.62,0,0,1,3.39-2.43,6.51,6.51,0,0,1,4.16,0A7,7,0,0,1,25.05,8,7.91,7.91,0,0,1,26.58,11.5Z"/></g><path class="cls-4" d="M13.74,11.84h0l-.06,0a3.56,3.56,0,0,0,0,6.9,3.57,3.57,0,0,0,.08-6.88Z"/><path class="cls-5" d="M16.2,11.62l-.09,0-.15,0a3.71,3.71,0,0,0-.67-.07,3.58,3.58,0,0,0-.87.11,3.7,3.7,0,0,1-.08,7.18h.05l.15,0a3.67,3.67,0,0,0,.75.08,3.71,3.71,0,0,0,.91-7.3Z"/></g></svg>