<svg id="Home" xmlns="http://www.w3.org/2000/svg" xmlns:xlink="http://www.w3.org/1999/xlink" viewBox="0 0 30 30"><defs><style>.cls-1{fill:url(#linear-gradient);}.cls-2,.cls-4{fill:#fff;}.cls-3{fill:#1a2356;}.cls-4{stroke:#fff;stroke-miterlimit:10;stroke-width:0.5px;}</style><linearGradient id="linear-gradient" y1="15" x2="30" y2="15" gradientUnits="userSpaceOnUse"><stop offset="0" stop-color="#c68cf1"/><stop offset="0.06" stop-color="#be8af2"/><stop offset="0.31" stop-color="#9f82f8"/><stop offset="0.56" stop-color="#887dfc"/><stop offset="0.79" stop-color="#7b79fe"/><stop offset="1" stop-color="#7678ff"/></linearGradient></defs><title>Artboard 1</title><g id="Background"><rect class="cls-1" width="30" height="30" rx="7.04"/></g><path class="cls-2" d="M13.74,16.11h-.06a3.56,3.56,0,0,0,0,6.9,3.58,3.58,0,0,0,.08-6.89Z"/><path class="cls-2" d="M19.89,16.57l-.06,0,.09,0Z"/><path class="cls-3" d="M16.2,15.9l-.09,0-.15,0a3.71,3.71,0,0,0-.67-.06,3.58,3.58,0,0,0-.87.11,3.7,3.7,0,0,1-.08,7.18h.05a.8.8,0,0,0,.15,0,3.66,3.66,0,0,0,.75.09,3.71,3.71,0,0,0,.91-7.3Z"/><g id="Roof"><polygon class="cls-4" points="28.89 16.81 15.13 4 1.37 16.81 3.7 16.81 15.13 6.19 26.42 16.81 28.89 16.81"/></g></svg>