<svg xmlns="http://www.w3.org/2000/svg" viewBox="0 0 30 30"><defs><style>.cls-1{fill:none;stroke:#fff;stroke-miterlimit:10;stroke-width:0.75px;}.cls-2{fill:#fffefd;}.cls-3{fill:#e6be8a;}</style></defs><title>new-inactive</title><g id="Novos"><g id="Layer_4" data-name="Layer 4"><rect class="cls-1" x="0.5" y="0.5" width="29" height="29" rx="6.8"/></g><g id="Layer_6" data-name="Layer 6"><path class="cls-2" d="M13.77,10.93h0a3.57,3.57,0,0,0,0,6.9,3.57,3.57,0,0,0,.08-6.88Z"/></g><g id="Layer_5" data-name="Layer 5"><path class="cls-3" d="M16.24,10.71l-.1,0-.14,0a3.71,3.71,0,0,0-.67-.07,3.58,3.58,0,0,0-.87.11,3.7,3.7,0,0,1-.09,7.18h0l.06,0,.14,0a3.84,3.84,0,0,0,.76.08,3.71,3.71,0,0,0,.91-7.3Z"/><rect class="cls-2" x="15" y="5" width="1" height="4" transform="translate(31 14) rotate(180)"/><rect class="cls-2" x="15" y="20" width="1" height="4" transform="translate(31 44) rotate(180)"/><rect class="cls-2" x="7.5" y="12.5" width="1" height="4" transform="translate(22.5 6.5) rotate(90)"/><rect class="cls-2" x="22.5" y="12.5" width="1" height="4" transform="translate(37.5 -8.5) rotate(90)"/><rect class="cls-3" x="21.23" y="7.94" width="0.53" height="2.12" transform="translate(30.34 30.57) rotate(-135)"/><rect class="cls-3" x="9.73" y="19.44" width="0.53" height="2.12" transform="translate(2.58 42.07) rotate(-135)"/><rect class="cls-3" x="9.73" y="7.94" width="0.53" height="2.12" transform="translate(23.44 8.29) rotate(135)"/><rect class="cls-3" x="21.23" y="19.44" width="0.53" height="2.12" transform="translate(51.2 19.79) rotate(135)"/></g></g></svg>