<svg xmlns="http://www.w3.org/2000/svg" viewBox="0 0 30 30"><defs><style>.cls-1{fill:none;stroke:#fff;stroke-miterlimit:10;stroke-width:0.75px;}.cls-2{fill:#fff;}.cls-3{fill:#fffefd;}.cls-4{fill:#e6be8a;}</style></defs><title>popular-inactive</title><g id="Populares"><rect class="cls-1" x="0.5" y="0.5" width="29" height="29" rx="6.8"/><polygon class="cls-2" points="3.64 16 14.71 26.31 25.79 16 23.91 16 14.71 24.55 5.63 16 3.64 16"/><polygon class="cls-2" points="25.79 13.31 14.71 3 3.64 13.31 5.52 13.31 14.71 4.76 23.8 13.31 25.79 13.31"/><path class="cls-3" d="M13.59,11.55h-.05a3.56,3.56,0,0,0,0,6.9,3.58,3.58,0,0,0,.07-6.89Z"/><path class="cls-4" d="M16.06,11.34l-.1,0-.14,0a3.71,3.71,0,0,0-.67-.06,4.14,4.14,0,0,0-.87.1,3.71,3.71,0,0,1-.08,7.19h.05l.15,0a3.66,3.66,0,0,0,.75.09,3.71,3.71,0,0,0,.91-7.3Z"/></g></svg>