<svg xmlns="http://www.w3.org/2000/svg" viewBox="0 0 30 30"><defs><style>.cls-1{fill:#1a2356;stroke:#1a2356;stroke-width:0.97px;}.cls-1,.cls-2{stroke-miterlimit:10;}.cls-2{fill:none;stroke:#fff;stroke-width:0.75px;}.cls-3{fill:#fff;}.cls-4{fill:#fffefd;}.cls-5{fill:#e6be8a;}</style></defs><title>Artboard 4</title><g id="Populares"><rect class="cls-1" x="0.5" y="0.5" width="30" height="30"/><rect class="cls-2" x="0.5" y="0.5" width="29" height="29" rx="6.8"/><polygon class="cls-3" points="4.64 16 15.71 26.31 26.79 16 24.91 16 15.71 24.55 6.63 16 4.64 16"/><polygon class="cls-3" points="26.79 13.31 15.71 3 4.64 13.31 6.52 13.31 15.71 4.76 24.8 13.31 26.79 13.31"/><path class="cls-4" d="M14.59,11.55h-.05a3.56,3.56,0,0,0,0,6.9,3.58,3.58,0,0,0,.07-6.89Z"/><path class="cls-5" d="M17.06,11.34l-.1,0-.14,0a3.71,3.71,0,0,0-.67-.06,4.14,4.14,0,0,0-.87.1,3.71,3.71,0,0,1-.08,7.19h.05l.15,0a3.66,3.66,0,0,0,.75.09,3.71,3.71,0,0,0,.91-7.3Z"/></g></svg>