<svg xmlns="http://www.w3.org/2000/svg" viewBox="0 0 30 30"><defs><style>.cls-1{fill:#e6be8a;}.cls-2{fill:#1a2356;stroke:#1a2356;stroke-width:0.97px;}.cls-2,.cls-3{stroke-miterlimit:10;}.cls-3{fill:none;stroke:#fff;stroke-width:0.75px;}.cls-4{fill:#fff;}</style></defs><title>Artboard 5</title><g id="Recomendados"><polygon class="cls-1" points="18.43 17.39 27.57 11.61 21.32 17.62 18.43 17.39"/><polygon class="cls-1" points="13 10 19.57 5.61 13.32 11.62 13 10"/><rect class="cls-2" x="0.5" y="0.5" width="30" height="30"/><rect class="cls-3" x="0.5" y="0.5" width="29" height="29" rx="6.8"/><path class="cls-4" d="M27.39,17.72h0l-1.37-1.18h-6.5l-.32-4.92-5.61-.28-.85-6.23L12.3,4.7h0L10.86,3.44l-5.5,8.39.45,13.31,15.24.11,6.5-7.39Zm-9.26-4.66.06,3.48H15.07Zm-.74-.35-3.1,3.53-.51-3.71Zm-10.58.37,4.75-7.54,1.69,11.88-6.46,6.2ZM19.57,24h-12L14,17.73h11.1L19.61,24Z"/></g></svg>